<?xml version="1.0" standalone="no"?>
<!DOCTYPE svg PUBLIC "-//W3C//DTD SVG 20010904//EN"
 "http://www.w3.org/TR/2001/REC-SVG-20010904/DTD/svg10.dtd">
<svg version="1.0" xmlns="http://www.w3.org/2000/svg"
 width="512.000000pt" height="512.000000pt" viewBox="0 0 512.000000 512.000000"
 preserveAspectRatio="xMidYMid meet">

<g transform="translate(0.000000,512.000000) scale(0.100000,-0.100000)"
fill="#000000" stroke="none">
<path d="M347 4909 c-84 -20 -171 -90 -215 -174 l-27 -50 -3 -1662 -2 -1662
21 -58 c30 -78 104 -152 182 -181 57 -22 65 -22 792 -22 404 0 735 -2 735 -5
0 -3 -52 -109 -115 -235 l-115 -230 -174 0 -175 0 -20 -26 c-19 -25 -21 -40
-21 -189 0 -149 2 -164 21 -189 l20 -26 1309 0 1309 0 20 26 c19 25 21 40 21
189 0 149 -2 164 -21 189 l-20 26 -175 0 -174 0 -115 230 c-63 126 -115 232
-115 235 0 2 339 6 753 7 l752 3 54 30 c68 38 125 102 151 172 20 54 20 63 18
1716 l-3 1662 -27 50 c-32 62 -103 129 -166 158 l-47 22 -2195 2 c-1265 0
-2211 -3 -2233 -8z m4414 -121 c53 -18 87 -45 116 -96 l28 -47 3 -1402 2
-1403 -2350 0 -2350 0 2 1403 3 1402 22 42 c23 43 69 84 113 102 38 15 4367
15 4411 -1z m137 -3252 l-3 -184 -30 -44 c-17 -23 -49 -53 -70 -65 l-40 -23
-2193 0 c-2136 0 -2194 0 -2230 19 -96 49 -112 94 -112 311 l0 170 2341 0
2340 0 -3 -184z m-1118 -1121 l0 -95 -1225 0 -1225 0 0 95 0 95 1225 0 1225 0
0 -95z"/>
<path d="M1170 4516 c-161 -34 -299 -107 -417 -220 -175 -165 -264 -369 -265
-606 -1 -245 83 -445 257 -615 248 -242 633 -307 944 -159 316 149 508 470
488 814 -22 372 -273 674 -643 776 -81 22 -281 27 -364 10z m885 -938 c-36
-238 -192 -449 -409 -553 -101 -49 -192 -68 -316 -68 -154 0 -275 37 -413 127
l-47 31 252 252 253 253 343 0 344 0 -7 -42z"/>
<path d="M3537 3992 c-16 -17 -17 -96 -17 -934 0 -874 1 -916 18 -931 16 -15
47 -17 230 -17 207 0 211 0 226 22 14 20 16 125 16 930 0 895 0 908 -20 928
-19 19 -33 20 -228 20 -190 0 -210 -2 -225 -18z m253 -932 l0 -830 -75 0 -75
0 0 830 0 830 75 0 75 0 0 -830z"/>
<path d="M4208 3233 c-70 -8 -68 13 -68 -563 0 -450 2 -518 16 -538 15 -22 19
-22 228 -22 194 0 214 2 229 18 15 17 17 69 17 543 0 437 -2 528 -14 545 -13
17 -28 19 -193 20 -98 1 -195 -1 -215 -3z m235 -120 l67 -6 0 -438 0 -439
-125 0 -125 0 0 445 0 445 58 0 c31 0 87 -3 125 -7z"/>
<path d="M2287 3212 c-15 -17 -17 -69 -17 -538 0 -454 2 -522 16 -542 15 -22
19 -22 228 -22 194 0 214 2 229 18 15 17 17 69 17 544 0 496 -1 526 -18 541
-16 15 -47 17 -229 17 -191 0 -211 -2 -226 -18z m253 -542 l0 -440 -75 0 -75
0 0 440 0 440 75 0 75 0 0 -440z"/>
<path d="M2911 2744 c-20 -26 -21 -39 -21 -310 0 -271 1 -285 20 -304 19 -19
33 -20 228 -20 114 0 212 4 219 8 31 19 34 66 27 345 -7 266 -8 279 -28 292
-16 12 -62 15 -222 15 l-203 0 -20 -26z m349 -304 l0 -210 -125 0 -125 0 0
210 0 210 125 0 125 0 0 -210z"/>
<path d="M505 2475 c-30 -29 -31 -35 -4 -69 l20 -26 685 0 c671 0 684 0 704
20 25 25 25 41 -1 74 l-20 26 -680 0 -680 0 -24 -25z"/>
<path d="M510 2212 c-28 -22 -30 -70 -4 -89 14 -10 106 -13 445 -13 l428 0 15
22 c23 32 20 54 -10 77 -26 20 -37 21 -439 21 -383 0 -414 -1 -435 -18z"/>
<path d="M2525 1538 c-75 -40 -49 -151 35 -151 82 0 111 111 39 148 -33 18
-47 18 -74 3z"/>
</g>
</svg>
